<?xml version="1.0" encoding="UTF-8"?>
<svg id="Layer_1" data-name="Layer 1" xmlns="http://www.w3.org/2000/svg" viewBox="0 0 420.2 426.72">
  <defs>
    <style>
      .cls-1 {
        fill: #6bbecb;
      }

      .cls-2 {
        fill: #31b3d1;
      }

      .cls-3 {
        fill: #d9d4d1;
      }

      .cls-4 {
        fill: #f02a11;
      }

      .cls-5 {
        fill: #f75921;
      }

      .cls-6 {
        fill: #edece9;
      }

      .cls-7 {
        fill: #f4f1ed;
      }

      .cls-8 {
        fill: #c7c6c4;
      }

      .cls-9 {
        fill: #b0a093;
      }

      .cls-10 {
        fill: #faf8f4;
      }

      .cls-11 {
        fill: #e47b49;
      }

      .cls-12 {
        fill: #fc501b;
      }

      .cls-13 {
        fill: #ca8867;
      }

      .cls-14 {
        fill: #50b5c5;
      }

      .cls-15 {
        fill: #1c4794;
      }

      .cls-16 {
        fill: #a0aba9;
      }

      .cls-17 {
        fill: #80b8c0;
      }

      .cls-18 {
        fill: #f63915;
      }

      .cls-19 {
        fill: #46ccde;
      }

      .cls-20 {
        fill: #e5e5e3;
      }

      .cls-21 {
        fill: #1f6aa2;
      }

      .cls-22 {
        fill: #f8f3ef;
      }

      .cls-23 {
        fill: #2995bc;
      }

      .cls-24 {
        fill: #f06f36;
      }
    </style>
  </defs>
  <path class="cls-15" d="m412.06,408.43c2.61,5.63,5.22,11.25,8.13,17.52h-10.1c-.72,0-1.43.01-2.15.02-.65.02-1.3.05-1.95.07-.66-.02-1.32-.03-1.98-.05-2.18-.06-4.35-.17-6.53-.18-18.12-.08-36.23-.14-54.34-.21-.18-2.3-.89-4.7-.46-6.87,2.7-13.62,5.78-27.16,8.5-40.77,3.05-15.27,6.19-30.54,8.62-45.91,1.27-8.05,2.26-16.29-2.7-24.05-2.71-4.25-3.96-9.43-5.86-14.19,1.32,1.43,2.65,2.85,3.97,4.28-.02.31.05.61.21.88.58.88,1.16,1.76,1.75,2.65,1.43,2.83,2.86,5.67,4.29,8.5.34.68.68,1.36,1.02,2.04.35.67.7,1.35,1.04,2.02,5.35,10.52,10.7,21.04,16.05,31.56.01.32.09.63.22.92l.78,1.1-.07-.09c.35.53.71,1.06,1.06,1.59,2.12,4.19,4.24,8.39,6.36,12.58,4.54,8.89,9.09,17.78,13.63,26.67,0,0-.05.1-.05.1.73,1.31,1.46,2.61,2.19,3.92,0,0-.05,0-.05,0,2.08,4.03,4.16,8.06,6.25,12.09,0,0-.06-.03-.06-.03.75,1.28,1.49,2.56,2.24,3.84Z"/>
  <path class="cls-8" d="m410,426.69c-.64,0-1.29.02-1.93.02-.05-.25-.09-.5-.12-.75.72,0,1.43-.01,2.15-.02-.04.25-.07.5-.1.75Z"/>
  <path class="cls-18" d="m53.24,314.22c.27-1.05.54-2.09.81-3.14,5.41-11.51,10.72-23.06,16.25-34.51,6.09-12.61,12.37-25.12,18.6-37.66,1.77-3.58,3.63-7.12,5.45-10.67-.75,6.3-1.85,12.59-2.15,18.92-.36,7.8-.75,15.71.14,23.43,1.07,9.28,3.85,18.36,5.23,27.62,2.49,16.77,4.42,33.62,6.7,50.42,1.02,7.48,3.1,14.9,3.29,22.38.15,5.87,1.92,10.13,7.05,12.06,3.72,1.41,8.08,1.73,12.11,1.55,4.3-.19,8.56-1.54,12.83-2.39-1.33.99-2.63,2.02-4,2.97-15.37,10.6-28.91,23.07-39.43,38.62-10.33-.32-18.65-5.98-27.37-10.47-1.22-.63-1.89-2.63-2.48-4.13-1.47-3.74-2.74-7.55-4.09-11.33-.62-1.73-1.6-3.42-1.79-5.19-.87-8.25-1.52-16.53-2.24-24.8-1.37-15.59-2.73-31.18-4.11-46.77-.2-2.3-.53-4.6-.8-6.9Z"/>
  <path class="cls-12" d="m139.55,382.23c-4.27.85-8.53,2.2-12.83,2.39-4.03.18-8.39-.14-12.11-1.55-5.13-1.94-6.9-6.19-7.05-12.06-.18-7.48-2.27-14.9-3.29-22.38-2.29-16.8-4.22-33.65-6.7-50.42-1.37-9.26-4.15-18.34-5.23-27.62-.89-7.72-.51-15.63-.14-23.43.3-6.32,1.4-12.61,2.15-18.92,3.37-7.11,6.77-14.21,10.08-21.35.62-1.34.88-2.85,1.31-4.28,2.46-4.7,4.92-9.41,7.39-14.11,3.94,4.57,1.82,9.78,2.02,14.9.45,11.5,2.03,22.96,3.25,34.43,1.13,10.52,2.28,21.04,3.63,31.53,2.3,17.8,4.75,35.59,7.15,53.38,1.64,12.14,3.29,24.27,5.03,36.4.28,1.96.63,4.07,1.58,5.75,2.81,4.94,5.94,9.69,8.94,14.52l-.16-.07c-.41.27-.81.55-1.22.82h0c-.67.37-1.34.73-2.01,1.1-.6.32-1.2.65-1.79.97Z"/>
  <path class="cls-6" d="m403.69,392.52c-.73-1.31-1.46-2.61-2.19-3.92.73,1.31,1.46,2.61,2.19,3.92Z"/>
  <path class="cls-3" d="m49.82,319.09c.36-.65.71-1.3,1.07-1.95,0,0,.16.11.16.11-.33.68-.66,1.37-.99,2.05l-.23-.21Z"/>
  <path class="cls-4" d="m50.05,319.29c.33-.68.66-1.37.99-2.05.73-1.01,1.46-2.02,2.19-3.03.27,2.3.6,4.59.8,6.9,1.39,15.59,2.74,31.18,4.11,46.77.73,8.27,1.37,16.54,2.24,24.8.19,1.77,1.17,3.46,1.79,5.19,1.35,3.78,2.62,7.6,4.09,11.33.59,1.5,1.25,3.51,2.48,4.13,8.72,4.48,17.05,10.15,27.37,10.47-1.9.68-3.79,1.37-5.69,2.05-30.06-.03-60.13-.06-90.2-.1-.08-.33-.16-.67-.24-1,.09-.36.18-.71.26-1.07,4.72-9.7,9.55-19.34,14.1-29.12,2.99-6.43,5.57-13.05,8.34-19.58,1.01-1.28,2.3-2.42,2.98-3.86,6.82-14.45,13.52-28.95,20.28-43.43,1.32-2.83,2.72-5.62,4.08-8.43Z"/>
  <path class="cls-21" d="m351.24,293.8c1.91,4.76,3.15,9.94,5.86,14.19,4.96,7.76,3.97,16,2.7,24.05-2.43,15.37-5.57,30.64-8.62,45.91-2.72,13.61-5.8,27.16-8.5,40.77-.43,2.18.28,4.58.46,6.87-7.08.05-14.17.17-21.25.08-1.08-.01-2.45-.74-3.19-1.58-8.17-9.21-16.24-18.51-24.34-27.78,3.14-4.47,7.48-8.53,9.2-13.49,5.54-16.04,10.69-32.26,14.91-48.69,4.63-18.04,8.24-36.35,11.94-54.62,2-9.88,3.7-19.86-2.77-29.19-1.48-2.13-1.21-5.47-1.74-8.25.98,1.52,2.1,2.98,2.93,4.58,6.42,12.37,12.78,24.77,19.17,37.16.34.67.68,1.33,1.02,2,.75,2.66,1.49,5.32,2.24,7.98Z"/>
  <path class="cls-22" d="m362.48,312.14c.79.33,1.59.65,2.38.98-.45.35-.89.7-1.34,1.04-.35-.67-.7-1.35-1.04-2.02Z"/>
  <path class="cls-20" d="m407.94,425.96c.03.25.07.5.12.75-.69-.23-1.38-.46-2.07-.68.65-.02,1.3-.05,1.95-.07Z"/>
  <path class="cls-10" d="m355.43,298.96c.58.88,1.16,1.76,1.75,2.65-.58-.88-1.16-1.76-1.75-2.65Z"/>
  <path class="cls-7" d="m379.79,346.65c.26.37.52.74.78,1.1-.26-.37-.52-.74-.78-1.1Z"/>
  <path class="cls-7" d="m380.51,347.66c.35.53.7,1.06,1.06,1.59-.35-.53-.7-1.06-1.06-1.59Z"/>
  <path class="cls-11" d="m181.76,365.83c-3.23.82-6.46,1.65-9.69,2.47-.16-.16-.33-.31-.5-.46-.97-2.25-2.64-4.45-2.8-6.76-.92-13.24-1.51-26.51-2.15-39.77-.41-8.57-.76-17.14-1.03-25.71-.17-5.32.08-10.67-.27-15.97-.79-11.88-2.02-23.73-2.72-35.61-.88-14.92-1.4-29.86-2.11-44.79-.3-6.38-.62-12.76-1.08-19.13-1.28-17.75-2.7-35.48-3.91-53.23-.33-4.8.63-9.81-.44-14.39-.64-2.73,2.42-6.5-1.86-8.33,4.88-10.43,9.76-20.87,14.64-31.3.78.58,2.21,1.13,2.25,1.76.62,9.97,1.07,19.95,1.56,29.93.67,13.77,1.49,27.54,1.99,41.32.8,22.21,1.54,44.42,2.03,66.64.29,13.29.09,26.59.04,39.89-.02,5.16.89,10.46-2.67,15.1-.69.9-.11,2.77-.11,4.19-.02.32-.06.65-.14.96l-.06.03c-.27.3-.54.61-.82.91-.37,1.08-.75,2.15-1.12,3.23.27.92.54,1.83.81,2.75,5.28-.71,6.83,1.84,6.21,6.73-.3,2.32.02,4.71.07,7.07.33,14.9.4,29.81,1.09,44.69.43,9.29,1.82,18.53,2.78,27.79Z"/>
  <path class="cls-16" d="m225.4,365.26c-6.07-.45-12.14-.9-18.21-1.34-.2-9.69-.39-19.38-.6-29.08-.12-5.32-.33-10.65-.37-15.97-.08-9.68-.17-19.36-.05-29.04.05-3.9.66-7.79,1.01-11.69,4.37-.09,8.75-.19,13.12-.28,1.7.19,3.39.37,5.09.56-1,1.58-2.79,3.13-2.88,4.76-.58,10.97-.98,21.95-1.07,32.94-.05,5.86.76,11.73.9,17.6.17,7.21-.26,14.44.19,21.62.21,3.35,1.87,6.62,2.88,9.92Z"/>
  <path class="cls-9" d="m207.18,278.14c-.35,3.9-.96,7.79-1.01,11.69-.12,9.68-.03,19.36.05,29.04.05,5.32.26,10.65.37,15.97.21,9.69.4,19.38.6,29.08-5.4.32-10.81.65-16.21.97,1.17-.59,2.33-1.18,2.16-1.09-.4-29.04-.79-57.35-1.18-85.66,5.07,0,10.14,0,15.21.01Z"/>
  <path class="cls-13" d="m191.96,278.13c.39,28.31.78,56.62,1.18,85.66.18-.09-.99.5-2.16,1.09-3.07.31-6.15.63-9.22.94-.96-9.26-2.35-18.5-2.78-27.79-.7-14.88-.76-29.79-1.09-44.69-.05-2.36-.37-4.76-.07-7.07.63-4.89-.93-7.44-6.21-6.73.1-.43.2-.85.3-1.28,6.69-.05,13.37-.1,20.06-.14Z"/>
  <path class="cls-17" d="m235.61,366.89c-.34.08-.69.16-1.03.24-3.06-.62-6.12-1.25-9.17-1.87-1-3.3-2.66-6.56-2.87-9.92-.45-7.18-.02-14.42-.19-21.62-.14-5.87-.95-11.74-.9-17.6.1-10.98.49-21.97,1.07-32.94.09-1.63,1.87-3.18,2.88-4.76,1.01-.15,2.01-.29,3.02-.44,2.76.17,5.52.35,8.28.52-.72.38-1.41.97-2.17,1.1-5.23.87-6.46,3.02-5.84,8.48.57,4.96.59,9.99.56,14.99-.03,4.67-.81,9.35-.61,14,.4,8.84,1.27,17.65,1.95,26.48-.02,4.51.74,9.2-.27,13.47-1.3,5.45.59,8.16,5.3,9.87Z"/>
  <path class="cls-11" d="m172.07,368.3c-.48.29-.96.57-1.43.86,0,0,.05-.4.05-.4.29-.3.59-.61.88-.91.17.15.34.3.5.46Z"/>
  <path class="cls-17" d="m213.21,18.03c1.1,2.99,2.19,5.97,3.29,8.96-.22,1.05-.72,2.14-.61,3.15.36,3.3,1.01,6.56,1.42,9.86.45,3.66.66,7.35,1.15,11,.91,6.81,2.57,13.58,2.81,20.41.68,19.83.89,39.67,1.11,59.51.16,14.68-.03,29.37.07,44.05.04,6.33.62,12.65.61,18.98,0,7.66-.65,15.32-.48,22.97.13,5.84,1.09,11.67,1.68,17.5-1.03-1.72-2.15-3.39-3.08-5.17-4.66-8.95-9.27-17.92-13.9-26.88-.07-42.12-.08-84.25-.24-126.37-.04-10.11-.59-20.21-.84-30.32-.34-13.69-.63-27.37-.93-41.06,2.65,4.47,5.3,8.95,7.95,13.42Z"/>
  <path class="cls-16" d="m205.27,4.61c.31,13.69.59,27.38.93,41.06.25,10.11.8,20.21.84,30.32.16,42.12.17,84.25.24,126.38-.82,1.15-1.64,2.3-2.45,3.46-1.84-1.08-4.87-1.81-5.3-3.3-1.35-4.63-2.16-9.53-2.37-14.36-.59-13.39-.82-26.79-1.09-40.19-.39-19.36-.69-38.73-1.03-58.09-.33-18.69-.77-37.38-.96-56.07-.05-5.28.6-10.56.94-15.85,0,0-.02.04-.02.04.34-.36.67-.73,1.01-1.09,0,0-.04.05-.04.05.36-1.05.72-2.1,1.07-3.16,0-.32.09-.61.24-.88.59-1.07,1.17-2.14,1.76-3.21,1.22-2.82,2.44-5.64,4.22-9.73.99,2.25,1.51,3.43,2.03,4.61Z"/>
  <path class="cls-9" d="m199.02,9.73c-.59,1.07-1.17,2.14-1.76,3.21.59-1.07,1.17-2.14,1.76-3.21Z"/>
  <path class="cls-9" d="m197.02,13.82c-.36,1.05-.72,2.1-1.07,3.16.11-.98.22-1.95.32-2.93.26-.04.51-.11.75-.23Z"/>
  <path class="cls-5" d="m118.96,174.23c2.19-4.59,4.27-9.24,6.58-13.77,5.44-10.69,10.99-21.34,16.49-32,.59.48,1.69.96,1.68,1.43-.03,7.41-.62,14.84-.27,22.22.69,14.61,1.89,29.19,2.87,43.78.14,2.02.3,4.04.3,6.06.03,12.62.16,25.24-.05,37.85-.14,8.58-1.23,17.15-1.07,25.72.2,11.39,1.56,22.76,1.77,34.16.32,17.57-.02,35.15.18,52.72.05,3.8,1.07,7.62,1.96,11.36.93,3.91,2.24,7.73,3.39,11.59,0,0-.14-.04-.14-.04-.42.24-.83.48-1.24.71-2.23,1.13-4.46,2.26-6.69,3.39-3-4.83-6.13-9.58-8.94-14.52-.95-1.68-1.3-3.79-1.58-5.75-1.73-12.13-3.38-24.26-5.03-36.4-2.41-17.79-4.86-35.57-7.15-53.38-1.35-10.49-2.51-21.01-3.63-31.53-1.23-11.47-2.8-22.93-3.25-34.43-.2-5.12,1.93-10.34-2.02-14.9,1.95-4.76,3.9-9.52,5.85-14.28Z"/>
  <path class="cls-13" d="m167.85,72.83c1.7-3.38,3.4-6.75,5.1-10.13,4.38-8.78,8.77-17.55,13.15-26.33-.19,2.55-.15,5.15-.65,7.65-.35,1.77-2.03,3.38-2.09,5.09-.35,9.39-.69,18.79-.44,28.18.39,14.44,1.42,28.86,1.9,43.3.81,24.24,1.42,48.48,2.05,72.73.08,3.16-.5,6.34-.35,9.49.31,6.2,1.39,12.4,1.28,18.59-.13,7.68-1.15,15.35-1.78,23.02-4.36,9.08-8.72,18.16-13.09,27.24,0-1.42-.57-3.29.11-4.19,3.55-4.65,2.65-9.95,2.67-15.1.05-13.3.25-26.6-.04-39.89-.49-22.22-1.22-44.43-2.03-66.64-.5-13.78-1.32-27.55-1.99-41.32-.49-9.98-.93-19.96-1.56-29.93-.04-.63-1.47-1.18-2.25-1.76Z"/>
  <path class="cls-9" d="m186.02,244.42c.63-7.67,1.64-15.34,1.78-23.02.11-6.19-.97-12.38-1.28-18.59-.16-3.15.43-6.33.35-9.49-.63-24.24-1.24-48.49-2.05-72.73-.48-14.44-1.51-28.86-1.9-43.3-.25-9.38.1-18.79.44-28.18.06-1.72,1.74-3.32,2.09-5.09.5-2.49.46-5.09.65-7.65,2.97-6.14,5.94-12.27,8.91-18.41-.33,5.28-.99,10.57-.94,15.85.19,18.69.62,37.38.96,56.07.35,19.36.64,38.73,1.03,58.09.27,13.4.5,26.8,1.09,40.19.21,4.83,1.02,9.73,2.37,14.36.43,1.49,3.46,2.22,5.3,3.3-2.57,5.69-5.14,11.38-7.7,17.08-3.7,7.17-7.4,14.35-11.1,21.52Z"/>
  <path class="cls-9" d="m195.99,16.93c-.34.36-.67.73-1.01,1.09.34-.36.67-.73,1.01-1.09Z"/>
  <path class="cls-5" d="m143.34,380.16c-.67.37-1.34.73-2.01,1.1.67-.37,1.34-.73,2.01-1.1Z"/>
  <path class="cls-5" d="m144.56,379.34c-.41.27-.81.55-1.22.82.41-.27.81-.55,1.22-.82Z"/>
  <path class="cls-24" d="m152.8,375.35c-1.15-3.86-2.46-7.68-3.39-11.59-.89-3.74-1.91-7.56-1.96-11.36-.21-17.57.14-35.15-.18-52.72-.21-11.39-1.57-22.76-1.77-34.16-.15-8.56.93-17.14,1.07-25.72.21-12.61.07-25.24.05-37.85,0-2.02-.17-4.04-.3-6.06-.98-14.59-2.18-29.17-2.87-43.78-.35-7.39.23-14.81.27-22.22,0-.47-1.1-.95-1.68-1.43,3.73-8.11,7.45-16.21,11.18-24.32,4.27,1.83,1.22,5.59,1.86,8.33,1.07,4.58.11,9.59.44,14.39,1.21,17.75,2.64,35.49,3.91,53.23.46,6.37.77,12.75,1.08,19.13.71,14.93,1.23,29.87,2.11,44.79.7,11.88,1.93,23.73,2.72,35.61.35,5.31.1,10.65.27,15.97.28,8.57.62,17.15,1.03,25.71.64,13.26,1.23,26.53,2.15,39.77.16,2.31,1.83,4.51,2.8,6.76-.29.3-.59.61-.88.91-5.96,2.2-11.93,4.4-17.89,6.6Z"/>
  <path class="cls-24" d="m151.42,376.03c.41-.24.83-.48,1.24-.71-.41.24-.83.48-1.24.71Z"/>
  <path class="cls-9" d="m0,424.77c.09-.36.18-.71.26-1.07-.09.36-.18.71-.26,1.07Z"/>
  <path class="cls-23" d="m309.4,208.63c4.82,9.8,9.63,19.59,14.45,29.39.36.71.72,1.42,1.08,2.13,0,0-.05-.09-.05-.09.36.71.71,1.41,1.07,2.12,0,0-.04-.09-.04-.09.53,2.78.27,6.12,1.74,8.25,6.46,9.33,4.77,19.31,2.77,29.19-3.69,18.27-7.31,36.58-11.94,54.62-4.22,16.43-9.37,32.65-14.91,48.69-1.72,4.96-6.06,9.02-9.2,13.49-6.64-4.41-13.27-8.82-19.91-13.23-.44-.33-.89-.65-1.33-.98h0c-.67-.39-1.35-.78-2.02-1.18-.35-.24-.7-.47-1.05-.71-.29-.19-.62-.27-.96-.24,0,0,.1-.01.1-.01-2.09-1.31-4.18-2.62-6.27-3.92,1.54-.93,3.76-1.5,4.5-2.86,2.87-5.31,5.66-10.73,7.76-16.37,3.52-9.43,6.54-19.05,9.7-28.61,5.57-16.86,11.9-33.52,16.37-50.66,3.62-13.88,5.24-28.31,7.21-42.56.79-5.72.08-11.64.2-17.46.06-2.97.47-5.93.72-8.89Z"/>
  <path class="cls-3" d="m271.11,380.93c.67.39,1.35.79,2.02,1.18-.67-.39-1.35-.79-2.02-1.18Z"/>
  <path class="cls-3" d="m273.12,382.11c.44.33.89.65,1.33.98-.44-.33-.89-.65-1.33-.98Z"/>
  <path class="cls-3" d="m269.09,379.99c.35-.04.67.04.96.24-.32-.08-.64-.16-.96-.24Z"/>
  <path class="cls-8" d="m170.8,276.8c.37.49.74.98,1.11,1.47-.1.43-.2.86-.3,1.28-.27-.92-.54-1.84-.81-2.75Z"/>
  <path class="cls-7" d="m172.73,272.66c-.27.3-.54.61-.82.91l.82-.91Z"/>
  <path class="cls-2" d="m309.4,208.63c-.25,2.96-.66,5.92-.72,8.89-.12,5.82.59,11.74-.2,17.46-1.97,14.26-3.59,28.69-7.21,42.56-4.47,17.14-10.8,33.81-16.37,50.66-3.16,9.56-6.18,19.18-9.7,28.61-2.11,5.64-4.89,11.06-7.76,16.37-.74,1.37-2.96,1.93-4.5,2.86-3.35-1.4-6.69-2.79-10.04-4.19-1.07-.96-2.26-1.82-3.17-2.91-.74-.9-1.72-2.14-1.6-3.11.51-4.31,1.62-8.55,2.08-12.87,1.98-18.67,3.81-37.36,5.69-56.05.68-1,1.74-1.91,1.99-3,1.49-6.52,2.24-13.26,4.29-19.58,2.82-8.67,2.82-17.28,1.96-26.16-.37-3.77.34-7.7.99-11.49,1.9-11.05,4.28-22.02,5.95-33.1,1.4-9.27,2.35-18.64,2.94-28,.46-7.32-.06-14.69.07-22.03.07-4.25.56-8.5.85-12.74,11.49,22.6,22.97,45.2,34.46,67.8Z"/>
  <path class="cls-14" d="m255.88,296.93c-1.88,18.68-3.71,37.37-5.69,56.05-.46,4.31-1.57,8.56-2.08,12.87-.12.97.86,2.22,1.6,3.11.91,1.09,2.1,1.95,3.17,2.91-5.76-1.66-11.52-3.31-17.27-4.97-4.71-1.71-6.59-4.42-5.3-9.87,1.02-4.27.25-8.96.27-13.47.74-.79,1.9-1.46,2.16-2.38,4.48-15.95,7.06-32.15,6.68-48.81-.11-4.72-2.96-10.45,3.28-13.8.35-.11.7-.23,1.05-.34.34-.11.69-.22,1.03-.33l.24-.19c-.09-.69-.18-1.37-.28-2.06-.36-1-.71-2.01-1.07-3.01-.7-1.34-1.4-2.68-2.1-4.02h.01c-.68-1.36-1.36-2.71-2.03-4.06,0,0,0-.01,0-.02,0-1.85-.31-3.76.03-5.54.87-4.62,2.03-9.2,3.07-13.79,2.7,4.08,6.75,7.38,7.17,12.77.22,2.82.54,5.65.99,8.44,1.65,10.18,3.37,20.35,5.07,30.52Z"/>
  <path class="cls-1" d="m236.69,278.5c2,.02,4.01.04,6.01.07-6.23,3.35-3.39,9.08-3.28,13.8.38,16.66-2.19,32.85-6.68,48.81-.26.92-1.42,1.59-2.16,2.38-.68-8.83-1.55-17.64-1.95-26.48-.21-4.65.58-9.33.61-14,.03-5,.01-10.04-.56-14.99-.63-5.46.61-7.61,5.84-8.48.76-.13,1.45-.72,2.17-1.1Z"/>
  <path class="cls-1" d="m223.36,38.46c3.11,6.03,6.22,12.06,9.33,18.09,2.64,5.76,5.29,11.51,7.93,17.27-1.38-.2-2.77-.41-4.12-.61.75,7.35,1.64,14.1,2.04,20.88.19,3.14-.89,6.34-.84,9.5.18,11.62.75,23.23.89,34.84.17,14.3-.21,28.61.13,42.9.28,11.92,1.22,23.82,1.96,35.73.59,9.38,1.32,18.75,1.99,28.12-1.04,4.59-2.19,9.16-3.07,13.79-.34,1.79-.04,3.69-.03,5.54-4.06-8.01-8.13-16.01-12.19-24.02-.29-.48-.58-.97-.87-1.45-.13-.17-.18-.36-.15-.57-.3-.47-.59-.94-.89-1.41,0,0-.01-.02-.01-.02-.34-.68-.68-1.36-1.01-2.04-.12-.18-.18-.39-.19-.6-.59-5.83-1.55-11.66-1.68-17.5-.17-7.65.47-15.32.48-22.97,0-6.33-.57-12.65-.61-18.98-.1-14.68.09-29.37-.07-44.05-.21-19.84-.43-39.68-1.11-59.51-.23-6.83-1.9-13.6-2.81-20.41-.49-3.65-.69-7.34-1.15-11-.41-3.29-1.06-6.56-1.42-9.86-.11-1.02.39-2.1.61-3.15,2.29,3.83,4.57,7.65,6.86,11.48Z"/>
  <path class="cls-19" d="m242.66,245.2c-.67-9.37-1.4-18.75-1.99-28.12-.74-11.9-1.67-23.81-1.96-35.73-.34-14.29.04-28.6-.13-42.9-.14-11.62-.7-23.23-.89-34.84-.05-3.16,1.03-6.36.84-9.5-.4-6.78-1.29-13.53-2.04-20.88,1.36.2,2.74.4,4.12.61,0,0,0,0,0,0,.4.65.8,1.31,1.2,1.96,11.04,21.68,22.07,43.36,33.11,65.04-.3,4.25-.78,8.49-.85,12.74-.13,7.34.39,14.71-.07,22.03-.59,9.36-1.54,18.72-2.94,28-1.67,11.08-4.06,22.05-5.95,33.1-.65,3.79-1.36,7.72-.99,11.49.86,8.88.86,17.49-1.96,26.16-2.05,6.32-2.8,13.06-4.29,19.58-.25,1.09-1.31,2-1.99,3-1.69-10.17-3.42-20.34-5.07-30.52-.45-2.79-.77-5.62-.99-8.44-.41-5.39-4.47-8.69-7.17-12.77Z"/>
  <path class="cls-1" d="m241.83,75.79c-.4-.65-.8-1.31-1.2-1.96.4.65.8,1.31,1.2,1.96Z"/>
  <path class="cls-21" d="m325.94,242.17c-.36-.71-.71-1.41-1.07-2.12.36.71.71,1.41,1.07,2.12Z"/>
  <path class="cls-21" d="m324.92,240.14c-.36-.71-.72-1.42-1.08-2.13.36.71.72,1.42,1.08,2.13Z"/>
  <path class="cls-1" d="m241.59,268.6c-.68-1.35-1.35-2.7-2.03-4.05.68,1.35,1.35,2.7,2.03,4.05Z"/>
  <path class="cls-1" d="m243.67,272.62c-.7-1.34-1.4-2.68-2.1-4.02.7,1.34,1.4,2.68,2.1,4.02Z"/>
  <path class="cls-8" d="m245.02,277.7c-.09-.69-.18-1.37-.28-2.06.09.69.18,1.37.28,2.06Z"/>
  <path class="cls-8" d="m243.75,278.22c.34-.11.69-.22,1.03-.33-.34.11-.69.22-1.03.33Z"/>
  <path class="cls-17" d="m224.45,235.02c.34.68.68,1.36,1.01,2.04-.34-.68-.68-1.36-1.01-2.04Z"/>
  <path class="cls-17" d="m226.51,239.06c.29.48.58.96.87,1.45-.29-.48-.58-.97-.87-1.45Z"/>
  <path class="cls-17" d="m225.47,237.08c.3.47.59.94.89,1.41-.3-.47-.59-.94-.89-1.41Z"/>
</svg>